#!OML:ASF I:\Actors\actors\Patient Classification 1\Patient 1\Session 1\Subject1.ASF
:FULLY-SPECIFIED
:DEGREES
355
root 0.59611 17.5141 8.94355 8.74808 -9.04742 -9.50861
lowerback -0.401257 2.73742 8.88452
upperback -8.29248 4.08554 0.612275
thorax -8.00918 1.41542 -4.54812
lowerneck -13.2927 4.9752 5.58555
upperneck 29.8379 3.72815 6.50978
head 12.0477 3.14789 2.02374
rclavicle -1.44119e-014 -7.95139e-016
rhumerus 88.2057 60.825 -11.0238
rradius 108.385
rwrist -44.6042
rhand -4.66687 -34.6195
rfingers 7.12502
rthumb 21.1135 -63.4899
lclavicle -1.44119e-014 -7.95139e-016
lhumerus 18.1374 -64.4709 35.6442
lradius 90.3284
lwrist 60.7522
lhand 11.2326 -13.9869
lfingers 7.12502
lthumb 36.2944 12.2567
rfemur -6.15869 24.4756 25.4479
rtibia 3.65461
rfoot -8.96897 -16.9628
rtoes -2.90591
lfemur 6.56682 -38.6015 -12.6378
ltibia -3.73478
lfoot -24.6983 52.2864
ltoes 14.2251
356
root 0.594225 17.5114 8.9494 8.70079 -8.57993 -9.66142
lowerback -0.470997 2.69168 8.77651
upperback -8.30355 4.01279 0.598037
thorax -7.99443 1.38755 -4.49668
lowerneck -13.5145 4.84685 5.44452
upperneck 30.0126 3.43322 6.89582
head 12.157 3.05693 2.16655
rclavicle 6.55989e-015 -7.95139e-016
rhumerus 88.1797 61.2202 -8.47104
rradius 111.004
rwrist -44.2962
rhand -4.36209 -34.1505
rfingers 7.12502
rthumb 21.4062 -62.9879
lclavicle 6.55989e-015 -7.95139e-016
lhumerus 18.4019 -64.4527 35.4345
lradius 90.5037
lwrist 60.8619
lhand 11.3227 -14.0073
lfingers 7.12502
lthumb 36.3798 12.215
rfemur -5.94884 24.4329 25.6994
rtibia 3.525
rfoot -9.01901 -17.3678
rtoes -2.72304
lfemur 6.56367 -38.7812 -12.388
ltibia -3.83898
lfoot -24.1557 52.1939
ltoes 13.6056
357
root 0.59236 17.509 8.95383 8.6314 -8.04334 -9.7574
lowerback -0.548017 2.63406 8.62301
upperback -8.33749 3.92039 0.541529
thorax -8.00223 1.34976 -4.46443
lowerneck -13.601 4.69397 5.33455
upperneck 30.0595 3.11909 7.26044
head 12.1909 2.95408 2.28359
rclavicle -1.43125e-014 1.43125e-014
rhumerus 86.841 61.8222 -7.00856
rradius 113.128
rwrist -44.1702
rhand -3.55716 -34.0095
rfingers 7.12502
rthumb 22.1792 -62.7571
lclavicle -1.43125e-014 1.43125e-014
lhumerus 18.6844 -64.4601 35.1902
lradius 90.5927
lwrist 60.9518
lhand 11.6795 -13.9749
lfingers 7.12502
lthumb 36.7175 12.1621
rfemur -5.76682 24.3819 25.8864
rtibia 3.46829
rfoot -9.14782 -17.8114
rtoes -2.31842
lfemur 6.58279 -39.1969 -12.2501
ltibia -3.92309
lfoot -23.7078 52.231
ltoes 13.0614
358
root 0.590681 17.507 8.95763 8.51691 -7.45266 -9.85738
lowerback -0.730759 2.51904 8.28201
upperback -8.2696 3.73706 0.646167
thorax -7.86492 1.29647 -4.14485
lowerneck -13.6939 4.56221 5.19025
upperneck 30.0121 2.9232 7.38636
head 12.188 2.8667 2.32844
rclavicle -2.68359e-015 0
rhumerus 84.8719 61.9288 -5.37656
rradius 114.989
rwrist -44.3918
rhand -1.89266 -32.9715
rfingers 7.12502
rthumb 23.7763 -61.5205
lclavicle -2.68359e-015 0
lhumerus 18.7654 -64.2641 35.2797
lradius 90.5542
lwrist 60.9675
lhand 11.6688 -13.9514
lfingers 7.12502
lthumb 36.7073 12.1881
rfemur -5.56457 24.3503 26.1033
rtibia 3.47341
rfoot -9.35081 -18.3248
rtoes -1.88134
lfemur 6.61658 -39.6248 -12.1253
ltibia -3.9662
lfoot -23.2112 52.2226
ltoes 12.6202
359
root 0.590826 17.5055 8.95968 8.34321 -6.81302 -9.9753
lowerback -0.463424 2.38306 8.4326
upperback -8.38859 3.58548 0.463304
thorax -8.15746 1.18665 -4.43311
lowerneck -13.695 4.43349 5.25782
upperneck 29.9891 2.65422 7.59927
head 12.1859 2.78159 2.35917
rclavicle 2.03754e-014 -1.11319e-014
rhumerus 81.4289 62.2884 -6.00909
rradius 115.801
rwrist -44.2062
rhand -1.46098 -32.6372
rfingers 7.12502
rthumb 24.1903 -61.1316
lclavicle 2.03754e-014 -1.11319e-014
lhumerus 19.0235 -64.4391 34.7071
lradius 90.6624
lwrist 61.0842
lhand 11.1763 -14.1463
lfingers 7.12502
lthumb 36.2411 12.1106
rfemur -5.298 24.2376 26.3707
rtibia 3.47015
rfoot -9.51451 -18.8422
rtoes -1.93847
lfemur 6.5405 -39.5724 -11.851
ltibia -3.97425
lfoot -22.1771 51.7809
ltoes 11.7376
360
root 0.591815 17.5059 8.9593 8.13793 -6.20931 -9.96073
lowerback -0.410775 2.20471 8.10173
upperback -8.3506 3.34508 0.588495
thorax -8.19676 1.09641 -4.10651
lowerneck -13.6731 4.35515 5.08155
upperneck 29.8671 2.62364 7.52076
head 12.1264 2.73451 2.34779
rclavicle -8.94531e-015 3.18055e-015
rhumerus 77.9605 62.2326 -6.98146
rradius 115.523
rwrist -43.8666
rhand -3.46228 -32.5282
rfingers 7.12502
rthumb 22.2702 -61.265
lclavicle -8.94531e-015 3.18055e-015
lhumerus 18.5662 -64.2764 35.1113
lradius 90.7972
lwrist 61.1966
lhand 10.8008 -14.2475
lfingers 7.12502
lthumb 35.8855 12.097
rfemur -5.07101 23.9988 26.4713
rtibia 3.52136
rfoot -9.63298 -19.2179
rtoes -2.18924
lfemur 6.4006 -39.379 -11.6958
ltibia -3.92068
lfoot -21.12 51.1788
ltoes 10.8775
361
root 0.59316 17.5083 8.95814 7.95731 -5.7329 -9.88583
lowerback -0.362788 1.9816 7.72166
upperback -8.28645 3.04594 0.805461
thorax -8.21434 0.985977 -3.65063
lowerneck -13.8827 4.38606 4.79029
upperneck 30.0415 2.76842 7.36994
head 12.2267 2.75416 2.37413
rclavicle 3.02153e-014 -7.15625e-015
rhumerus 74.7645 61.7755 -8.52386
rradius 114.281
rwrist -43.5694
rhand -4.51325 -32.2887
rfingers 7.12502
rthumb 21.261 -61.1426
lclavicle 3.02153e-014 -7.15625e-015
lhumerus 17.268 -63.9648 36.1806
lradius 91.0021
lwrist 61.3089
lhand 10.9254 -14.1687
lfingers 7.12502
lthumb 36.0035 12.1469
rfemur -4.93037 23.8088 26.4641
rtibia 3.64173
rfoot -9.7989 -19.4893
rtoes -1.98686
lfemur 6.27225 -39.2609 -11.6568
ltibia -3.83418
lfoot -20.3558 50.7081
ltoes 10.2167
362
root 0.596538 17.5109 8.9578 7.8247 -5.42513 -9.91915
lowerback -0.587507 1.76574 7.46798
upperback -8.06368 2.73471 1.16206
thorax -7.89624 0.88303 -3.10323
lowerneck -13.9914 4.57179 4.66785
upperneck 30.0368 3.20268 6.92541
head 12.2372 2.8772 2.29075
rclavicle 5.96354e-015 -2.3059e-014
rhumerus 72.5726 60.6831 -10.2316
rradius 112.291
rwrist -43.36
rhand -4.68846 -32.3443
rfingers 7.12502
rthumb 21.0927 -61.2171
lclavicle 5.96354e-015 -2.3059e-014
lhumerus 15.7332 -63.3557 37.5269
lradius 91.1098
lwrist 61.5217
lhand 11.6034 -14.1282
lfingers 7.12502
lthumb 36.6455 12.0271
rfemur -4.83736 23.6657 26.55
rtibia 3.75126
rfoot -9.89894 -19.6317
rtoes -1.88489
lfemur 6.14248 -38.9732 -11.4946
ltibia -3.75199
lfoot -19.5699 50.2641
ltoes 9.23132
363
root 0.600696 17.5139 8.95815 7.75518 -5.39429 -9.99288
lowerback -0.274908 1.59438 7.91084
upperback -8.20595 2.55834 1.10762
thorax -8.24567 0.7448 -3.40981
lowerneck -14.0927 4.74805 4.68715
upperneck 30.377 3.42385 6.94138
head 12.3922 2.98858 2.34456
rclavicle -8.84592e-015 1.82882e-014
rhumerus 70.9484 59.8189 -13.1234
rradius 109.895
rwrist -43.2115
rhand -4.90298 -32.9005
rfingers 7.12502
rthumb 20.8866 -61.7961
lclavicle -8.84592e-015 1.82882e-014
lhumerus 13.961 -63.2574 38.4915
lradius 91.1784
lwrist 61.8613
lhand 12.8158 -13.9781
lfingers 7.12502
lthumb 37.7919 11.8775
rfemur -4.813 23.6162 26.6529
rtibia 3.85436
rfoot -9.86031 -19.6199
rtoes -2.13416
lfemur 6.09708 -38.6838 -11.36
ltibia -3.69798
lfoot -19.2487 49.9821
ltoes 8.86176
364
root 0.602757 17.5156 8.95914 7.74601 -5.74218 -10.0301
lowerback -0.323545 1.54484 8.12507
upperback -8.205 2.49822 1.16157
thorax -8.22195 0.702642 -3.46611
lowerneck -13.9367 4.92314 4.83691
upperneck 30.4826 3.69954 6.76121
head 12.4059 3.10498 2.29007
rclavicle -1.90833e-014 2.22639e-014
rhumerus 70.541 58.7269 -15.3613
rradius 107.708
rwrist -43.1464
rhand -5.89626 -33.3961
rfingers 7.12502
rthumb 19.9321 -62.3939
lclavicle -1.90833e-014 2.22639e-014
lhumerus 12.6126 -63.1262 39.2877
lradius 91.0707
lwrist 62.0898
lhand 13.1262 -13.6463
lfingers 7.12502
lthumb 38.085 12.1298
rfemur -4.85981 23.7896 26.6921
rtibia 3.97278
rfoot -9.81873 -19.4692
rtoes -2.32831
lfemur 6.2224 -38.4532 -11.4018
ltibia -3.69348
lfoot -19.6629 49.9758
ltoes 9.54186
365
root 0.603971 17.5151 8.96029 7.74937 -6.4227 -9.98802
lowerback -0.670481 1.64847 8.13896
upperback -8.02666 2.5932 1.2338
thorax -7.81234 0.772668 -3.38817
lowerneck -13.6536 5.06723 5.06664
upperneck 30.3212 3.95369 6.50533
head 12.2908 3.20407 2.17351
rclavicle 1.11319e-014 -7.95139e-016
rhumerus 70.7596 57.7964 -18.2455
rradius 105.191
rwrist -42.4243
rhand -6.14528 -34.2135
rfingers 7.12502
rthumb 19.6927 -63.236
lclavicle 1.11319e-014 -7.95139e-016
lhumerus 12.3233 -63.0837 39.2803
lradius 90.8466
lwrist 62.0625
lhand 12.1216 -13.2399
lfingers 7.12502
lthumb 37.1357 12.7894
rfemur -4.93652 23.9919 26.617
rtibia 4.08083
rfoot -9.7424 -19.0296
rtoes -2.55635
lfemur 6.55156 -38.3377 -11.7337
ltibia -3.68037
lfoot -20.5922 50.3042
ltoes 10.5733
366
root 0.604575 17.5149 8.95989 7.77703 -7.28787 -9.8397
lowerback -0.548605 1.85159 8.28954
upperback -8.09796 2.87594 1.06138
thorax -7.91641 0.887978 -3.67379
lowerneck -13.4657 5.13056 5.26145
upperneck 30.3711 3.99354 6.53973
head 12.2796 3.24754 2.15555
rclavicle -7.15625e-015 -2.46493e-014
rhumerus 70.9845 57.3707 -21.379
rradius 103.08
rwrist -41.4893
rhand -5.73721 -34.3298
rfingers 7.12502
rthumb 20.085 -63.3116
lclavicle -7.15625e-015 -2.46493e-014
lhumerus 12.515 -63.495 38.684
lradius 90.5885
lwrist 61.8913
lhand 11.4351 -13.1656
lfingers 7.12502
lthumb 36.4862 13.03
rfemur -5.08065 24.1203 26.3872
rtibia 4.18624
rfoot -9.60159 -18.3451
rtoes -2.74351
lfemur 6.92731 -38.2742 -12.2705
ltibia -3.63736
lfoot -21.799 50.8018
ltoes 11.6132
367
root 0.604643 17.5141 8.95943 7.88532 -8.23868 -9.70413
lowerback -0.466186 2.17644 8.49861
upperback -8.15679 3.31399 0.800324
thorax -7.95339 1.07539 -4.09254
lowerneck -13.4319 5.09685 5.42865
upperneck 30.3685 3.87523 6.62072
head 12.2797 3.2236 2.14057
rclavicle -1.05356e-014 1.51076e-014
rhumerus 71.7833 57.1551 -23.7002
rradius 102.227
rwrist -41.7115
rhand -6.57931 -35.3674
rfingers 7.12502
rthumb 19.2754 -64.4322
lclavicle -1.05356e-014 1.51076e-014
lhumerus 13.3635 -63.8914 37.6061
lradius 90.34
lwrist 61.8767
lhand 11.3719 -13.3717
lfingers 7.12502
lthumb 36.4263 12.8389
rfemur -5.34374 24.176 26.1282
rtibia 4.31659
rfoot -9.45382 -17.4892
rtoes -2.98788
lfemur 7.13293 -37.8774 -12.647
ltibia -3.59575
lfoot -22.8171 51.1039
ltoes 12.4139
368
root 0.604793 17.5135 8.95951 8.06211 -9.21626 -9.67832
lowerback -0.384009 2.5722 8.74305
upperback -8.20437 3.84986 0.561059
thorax -7.95705 1.3114 -4.51214
lowerneck -13.3903 5.0283 5.70828
upperneck 30.2075 3.71363 6.60824
head 12.221 3.1772 2.05827
rclavicle -3.94588e-014 -2.70347e-014
rhumerus 72.8478 57.048 -25.2826
rradius 102.183
rwrist -41.7819
rhand -6.03959 -35.7669
rfingers 7.12502
rthumb 19.7943 -64.779
lclavicle -3.94588e-014 -2.70347e-014
lhumerus 14.5055 -64.2204 36.4383
lradius 90.1725
lwrist 61.9584
lhand 11.379 -13.5388
lfingers 7.12502
lthumb 36.4331 12.6701
rfemur -5.66095 24.2129 25.9682
rtibia 4.41511
rfoot -9.2697 -16.5683
rtoes -3.51473
lfemur 7.2365 -37.3052 -12.7969
ltibia -3.57668
lfoot -23.6648 51.2931
ltoes 13.1379
